<?xml version="1.0" standalone="no"?><!DOCTYPE svg PUBLIC "-//W3C//DTD SVG 1.1//EN" "http://www.w3.org/Graphics/SVG/1.1/DTD/svg11.dtd"><svg t="1665537154413" class="icon" viewBox="0 0 1024 1024" version="1.1" xmlns="http://www.w3.org/2000/svg" p-id="2643" xmlns:xlink="http://www.w3.org/1999/xlink" width="200" height="200"><path d="M512 170.666667a256 256 0 1 1 0 512 256 256 0 0 1 0-512z m0 128a128 128 0 1 0 0 256 128 128 0 0 0 0-256z m0 42.666666a85.333333 85.333333 0 1 1 0 170.666667 85.333333 85.333333 0 0 1 0-170.666667z" fill="#444444" p-id="2644"></path><path d="M725.333333 635.690667v281.813333l-168.789333-101.376 40.789333-24.490667V712.96a298.538667 298.538667 0 0 0 128-77.269333zM512 725.333333c14.506667 0 28.714667-1.024 42.666667-2.986666v41.386666l-256 153.770667-0.085334-281.898667A297.770667 297.770667 0 0 0 512 725.333333z" fill="#444444" p-id="2645"></path></svg>